<svg width="374" height="78" viewBox="0 0 374 78" fill="none" xmlns="http://www.w3.org/2000/svg">
<path fill-rule="evenodd" clip-rule="evenodd" d="M13.0125 77.9113C23.5259 77.9113 29.9891 72.5048 32.2294 61.6022L34.4701 50.8775H22.2332L19.9926 61.6022C19.4757 64.4387 17.9244 65.8568 15.5117 65.8568C13.5296 65.8568 12.5815 64.9706 12.5815 63.109L12.7539 61.6022L22.0608 16.3091C22.6642 13.4728 24.129 12.0546 26.542 12.0546C28.524 12.0546 29.5581 13.0296 29.5581 14.8023L29.3857 16.3091L27.1451 27.034H39.3822L41.7087 16.3091C42.1397 14.3591 42.3122 12.675 42.3122 11.0796C42.3122 3.72274 37.9171 0 29.2133 0C18.614 0 12.237 5.40684 9.99634 16.3091L0.603246 61.6022C0.172367 63.4638 0 65.2363 0 66.8317C0 74.1885 4.30865 77.9113 13.0125 77.9113ZM47.9538 77.9113C58.467 77.9113 64.9305 72.5048 67.1708 61.6022L76.6502 16.3091C77.0808 14.3591 77.2533 12.675 77.2533 11.0796C77.2533 3.72274 72.8584 0 64.1549 0C53.5554 0 47.1783 5.40684 44.9376 16.3091L35.5445 61.6022C35.1138 63.4638 34.9414 65.2363 34.9414 66.8317C34.9414 74.1885 39.2502 77.9113 47.9538 77.9113ZM64.4995 14.8023L64.327 16.3091L54.934 61.6022C54.417 64.4387 52.8658 65.8568 50.4531 65.8568C48.4709 65.8568 47.5228 64.9706 47.5228 63.109L47.6953 61.6022L57.0023 16.3091C57.6053 13.4728 59.0705 12.0546 61.4832 12.0546C63.4654 12.0546 64.4995 13.0296 64.4995 14.8023ZM83.9506 1.1638H100.841C108.855 1.1638 112.819 4.79788 112.819 11.9774C112.819 13.6615 112.647 15.4343 112.216 17.4729L103.34 60.3728C101.1 71.1866 94.8091 76.6818 84.5541 76.6818H68.2669L83.9506 1.1638ZM93.6885 13.2184L83.089 64.7161H86.7083C89.1211 64.7161 90.5862 63.298 91.1893 60.4615L100.066 17.5615L100.238 16.0547C100.238 14.1933 99.29 13.2184 97.3079 13.2184H93.6885ZM148.699 1.1638H119.917L104.319 76.7705H133.102L135.601 64.7161H119.055L123.105 45.0386H137.324L139.824 32.9842H125.604L129.655 13.2184H146.201L148.699 1.1638ZM151.915 1.1638H167.943C175.958 1.1638 179.922 4.79788 179.922 11.9774C179.922 13.6615 179.749 15.4343 179.318 17.4729L177.078 28.6412C175.699 35.4662 172.08 39.898 166.306 41.9368L170.873 76.7705H157.516L155.879 44.2411H155.19L148.468 76.7705H136.231L151.915 1.1638ZM161.653 13.2184L157.602 32.8957H159.067C160.36 32.8957 161.653 32.6299 161.653 32.6299C163.29 32.0091 164.41 30.6797 164.841 28.5524L167.082 17.3842L167.254 15.8774C167.254 14.0161 166.306 13.0411 164.324 13.0411L161.653 13.2184ZM214.256 1.1638H202.019L186.422 76.7705H198.658L205.207 45.0386H212.446L205.897 76.7705H218.134L233.732 1.1638H221.495L214.945 32.8957H207.707L214.256 1.1638ZM257.229 61.6022C254.988 72.5048 248.524 77.9113 238.011 77.9113C229.307 77.9113 224.998 74.1885 224.998 66.8317C224.998 65.2363 225.171 63.4638 225.602 61.6022L234.995 16.3091C237.235 5.40684 243.612 0 254.211 0C262.916 0 267.312 3.72274 267.312 11.0796C267.312 12.675 267.138 14.3591 266.708 16.3091L257.229 61.6022ZM254.384 16.3091L254.555 14.8023C254.555 13.0296 253.608 12.0546 251.628 12.0546C249.215 12.0546 247.662 13.4728 247.059 16.3091L237.666 61.6022L237.494 63.109C237.494 64.9706 238.441 65.8568 240.424 65.8568C242.837 65.8568 244.388 64.4387 244.905 61.6022L254.384 16.3091ZM273.558 77.9229C284.072 77.9229 290.536 72.516 292.775 61.6138L305.272 1.1638H293.034L280.625 61.6138C280.11 64.4499 278.556 65.8684 276.144 65.8684C274.161 65.8684 273.214 64.9822 273.214 63.1206L273.387 61.6138L285.882 1.1638H273.646L261.149 61.6138C260.719 63.475 260.546 65.2479 260.546 66.8433C260.546 74.2001 264.855 77.9229 273.558 77.9229ZM306.09 16.3091C308.331 5.40684 314.707 0 325.307 0C334.012 0 338.404 3.72274 338.404 11.0796C338.404 12.675 338.234 14.3591 337.801 16.3091L335.562 27.034H323.324L325.565 16.3091L325.739 14.8023C325.739 13.0296 324.789 12.0546 322.809 12.0546C320.396 12.0546 318.843 13.4728 318.24 16.3091L316.863 23.0455L316.775 24.1091C316.775 27.034 319.188 30.491 323.927 34.6568C328.496 38.557 330.823 43.1659 330.823 48.3067C330.823 49.6364 330.649 50.9658 330.39 52.2955L328.41 61.6909C326.169 72.5931 319.791 78 309.193 78C300.488 78 296.093 74.2772 296.093 66.8317C296.093 65.2363 296.266 63.5525 296.696 61.6022L298.938 50.8775H311.173L308.935 61.6022L308.761 63.109C308.761 64.9706 309.708 65.8568 311.691 65.8568C314.103 65.8568 315.569 64.4387 316.172 61.6022L317.896 53.1818L317.981 52.0294C317.981 48.9272 315.654 45.2932 310.915 41.216C306.349 37.3158 304.107 32.707 304.107 27.4774C304.107 26.1477 304.28 24.7296 304.539 23.3114L306.09 16.3091ZM374 1.1638H345.216L329.62 76.6818H358.402L360.9 64.6273H344.442L348.49 44.9504H362.712L365.21 32.8957H350.906L354.954 13.2184H371.5L374 1.1638Z" fill="black"/>
</svg>
